<?xml version="1.0" standalone="no"?>
<!DOCTYPE svg PUBLIC "-//W3C//DTD SVG 1.0//EN" "http://www.w3.org/TR/2001/REC-SVG-20010904/DTD/svg10.dtd">
<svg xmlns="http://www.w3.org/2000/svg" xmlns:xlink="http://www.w3.org/1999/xlink" id="body_1" width="28" height="20">

<g transform="matrix(0.50269306 0 0 0.50269306 -0 0.22262053)">
	<g>
        <path d="M3.28 0.25L52.41 0.25C 54.079998 0.25 55.44 1.61 55.44 3.28L55.44 3.28L55.44 35.61C 55.44 37.27 54.09 38.63 52.43 38.64L52.43 38.64L3.26 38.64C 1.6 38.63 0.25 37.27 0.25 35.61L0.25 35.61L0.25 3.28C 0.25 1.61 1.61 0.25 3.28 0.25z" stroke="#CCCCCC" stroke-width="0.5" fill="#FFFFFF" fill-rule="nonzero" />
        <path d="M3.28 0.25L52.41 0.25C 54.079998 0.25 55.44 1.61 55.44 3.28L55.44 3.28L55.44 19.45L0.25 19.45L0.25 3.28C 0.25 1.61 1.61 0.25 3.28 0.25z" stroke="none" fill="#CE1126" fill-rule="nonzero" />
	</g>
</g>
</svg>