<?xml version="1.0" standalone="no"?>
<!DOCTYPE svg PUBLIC "-//W3C//DTD SVG 1.0//EN" "http://www.w3.org/TR/2001/REC-SVG-20010904/DTD/svg10.dtd">
<svg xmlns="http://www.w3.org/2000/svg" xmlns:xlink="http://www.w3.org/1999/xlink" id="body_1" width="28" height="20">

<g transform="matrix(0.5061461 0 0 0.5061461 -0 0.2516269)">
	<g>
        <path d="M3.09 0.06L52.22 0.06C 53.89 0.06 55.25 1.42 55.25 3.09L55.25 3.09L55.25 35.420002C 55.25 37.09 53.89 38.45 52.22 38.45L52.22 38.45L3.09 38.45C 1.42 38.45 0.059999943 37.08 0.059999943 35.420002L0.059999943 35.420002L0.059999943 3.09C 0.06 1.42 1.42 0.06 3.09 0.06z" stroke="none" fill="#CC0001" fill-rule="nonzero" />
        <path d="M0.1 35.92L55.219997 35.92C 54.979996 37.359997 53.729996 38.46 52.229996 38.46L52.229996 38.46L3.09 38.46C 1.59 38.46 0.34 37.36 0.1 35.92z" stroke="none" fill="#FFFFFF" fill-rule="nonzero" />
        <path d="M0.06 30.38L55.26 30.38L55.26 33.15L0.06 33.15L0.06 30.38L0.06 30.38" stroke="none" fill="#FFFFFF" fill-rule="nonzero" />
        <path d="M0.06 24.84L55.26 24.84L55.26 27.61L0.06 27.61L0.06 24.84L0.06 24.84" stroke="none" fill="#FFFFFF" fill-rule="nonzero" />
        <path d="M0.06 19.29L55.26 19.29L55.26 22.06L0.06 22.06L0.06 19.29L0.06 19.29" stroke="none" fill="#FFFFFF" fill-rule="nonzero" />
        <path d="M0.06 13.75L55.26 13.75L55.26 16.52L0.06 16.52L0.06 13.75L0.06 13.75" stroke="none" fill="#FFFFFF" fill-rule="nonzero" />
        <path d="M0.06 8.21L55.26 8.21L55.26 10.98L0.06 10.98L0.06 8.21L0.06 8.21" stroke="none" fill="#FFFFFF" fill-rule="nonzero" />
        <path d="M0.09 2.67L55.23 2.67C 55.25 2.8100002 55.26 2.95 55.26 3.0900002L55.26 3.0900002L55.26 5.44L0.06 5.44L0.06 3.09C 0.06 2.95 0.07 2.81 0.09 2.67z" stroke="none" fill="#FFFFFF" fill-rule="nonzero" />
        <path d="M36.64 0.06L36.64 22.06L0.06 22.06L0.06 3.09C 0.06 1.42 1.42 0.059999943 3.09 0.059999943L3.09 0.059999943L36.64 0.059999943L36.64 0.06z" stroke="none" fill="#010066" fill-rule="nonzero" />
        <path d="M13.81 2.67C 9.210001 2.67 5.4700003 6.3900003 5.4700003 10.9800005C 5.4700003 15.570001 9.21 19.29 13.81 19.29C 15.47 19.29 17.02 18.800001 18.32 17.970001C 17.56 18.230001 16.75 18.37 15.9 18.37C 11.82 18.37 8.5 15.070001 8.5 11.000001C 8.5 6.930001 11.809999 3.630001 15.9 3.630001C 16.8 3.630001 17.67 3.7900012 18.47 4.090001C 17.14 3.19 15.54 2.67 13.81 2.67z" stroke="none" fill="#FFCC00" fill-rule="nonzero" />
        <path d="M27.64 15.31L24.13 13.48L25.17 17.23L22.82 14.09L22.09 17.91L21.36 14.09L19.01 17.22L20.06 13.47L16.54 15.29L19.15 12.36L15.17 12.51L18.83 10.98L15.17 9.43L19.16 9.59L16.55 6.65L20.06 8.49L19.03 4.74L21.37 7.87L22.11 4.05L22.83 7.88L25.19 4.74L24.14 8.49L27.66 6.67L25.04 9.6L29.02 9.45L25.36 10.99L29.02 12.53L25.04 12.37L27.64 15.31L27.64 15.31" stroke="none" fill="#FFCC00" fill-rule="nonzero" />
        <path d="M3.09 0.06L52.22 0.06C 53.89 0.06 55.25 1.42 55.25 3.09L55.25 3.09L55.25 35.420002C 55.25 37.09 53.89 38.45 52.22 38.45L52.22 38.45L3.09 38.45C 1.42 38.45 0.059999943 37.08 0.059999943 35.420002L0.059999943 35.420002L0.059999943 3.09C 0.06 1.42 1.42 0.06 3.09 0.06z" stroke="#CCCCCC" stroke-width="0.1199" fill="none" />
	</g>
</g>
</svg>